PathFileType	4	(X/Y/Z)	c:/Users/goper/Files/vsCode/490R/osim_files/C17/C17_Fast_04.trc
DataRate	CameraRate	NumFrames	NumMarkers	Units                	OrigDataRate	OrigDataStartFrame	OrigNumFrames
250.00	250.00	4	36	mm	250.0	523	2090
                Frame#	Time	LPSIS			LASIS			LTH1			LTH2			LTH3			LTH4			LLFE			LMFE			LSH1			LSH2			LSH3			LSH4			LLMAL			LMMAL			LCAL			LMTP5			LTOE			LMTP1			RPSIS			RASIS			RTH1			RTH2			RTH3			RTH4			RLFE			RMFE			RSH1			RSH2			RSH3			RSH4			RLMAL			RMMAL			RCAL			RMTP1			RTOE			RMTP5		
		X1	Y1	Z1	X2	Y2	Z2	X3	Y3	Z3	X4	Y4	Z4	X5	Y5	Z5	X6	Y6	Z6	X7	Y7	Z7	X8	Y8	Z8	X9	Y9	Z9	X10	Y10	Z10	X11	Y11	Z11	X12	Y12	Z12	X13	Y13	Z13	X14	Y14	Z14	X15	Y15	Z15	X16	Y16	Z16	X17	Y17	Z17	X18	Y18	Z18	X19	Y19	Z19	X20	Y20	Z20	X21	Y21	Z21	X22	Y22	Z22	X23	Y23	Z23	X24	Y24	Z24	X25	Y25	Z25	X26	Y26	Z26	X27	Y27	Z27	X28	Y28	Z28	X29	Y29	Z29	X30	Y30	Z30	X31	Y31	Z31	X32	Y32	Z32	X33	Y33	Z33	X34	Y34	Z34	X35	Y35	Z35	X36	Y36	Z36

523	2.08800	444.45547	1027.66541	298.69485	257.18033	969.04242	403.11026	352.29398	643.28339	427.60883	338.80081	598.89514	423.12399	291.61121	654.23871	435.72302	287.03613	608.88202	431.13168	347.68207	450.63062	409.72760	329.15662	441.20825	282.52780	560.66785	372.27081	405.27170	595.73633	347.66025	403.00238	530.38287	315.92462	406.29007	570.54047	300.16397	401.63901	708.81049	253.87778	381.84781	693.99072	251.40352	295.07196	756.85571	322.32898	340.68637	752.52063	122.02792	380.66602	712.47522	80.73557	314.62115	734.99078	101.79263	266.15518	438.38657	1028.72949	223.50725	249.42155	996.09583	137.21465	205.99916	732.08160	74.94772	187.08664	690.92596	85.41238	151.01733	753.04303	89.45742	137.74149	708.22815	91.21642	81.94795	493.75488	117.35455	115.47971	504.39740	237.87648	150.49779	291.63388	110.57988	146.32065	248.85736	126.01453	89.39714	295.29187	128.82957	95.04009	249.27785	141.05338	154.74295	88.09982	169.45363	130.01907	106.49228	257.40652	225.75584	50.17297	211.38914	-7.95490	48.18787	258.63416	-25.46189	72.14998	213.74080	27.05530	37.41055	145.72836
524	2.09200	437.53290	1028.74341	298.66507	250.25516	970.63293	402.73813	340.30972	643.49298	427.38275	326.83441	599.57361	422.93753	280.52997	655.55573	435.68240	275.17099	610.23151	431.15335	333.84561	452.08145	410.09851	315.94888	442.68851	282.75443	546.94312	374.16614	405.64813	581.96289	349.54568	403.22128	516.58551	317.65347	406.31305	556.74023	302.00949	401.61954	695.37787	255.97437	381.95712	679.96783	253.30339	295.54749	744.75757	323.24088	340.79657	735.86755	123.31055	381.40067	695.28308	82.54321	315.31961	717.33240	101.84059	267.51163	431.41785	1029.90161	223.43636	242.52014	997.88214	136.94382	201.25859	732.60126	74.66187	182.42928	691.39221	85.28287	146.04086	753.16754	89.02184	133.18411	708.35315	90.64958	79.06590	493.23383	116.96233	112.91273	504.81128	238.13513	149.54033	291.73270	110.83507	149.44600	251.18634	124.81094	88.09624	294.77673	128.59097	98.60101	244.23860	141.60678	154.60719	88.15222	169.55164	129.84146	106.46316	257.53134	225.73212	50.27175	211.42818	-8.00133	47.81885	258.81299	-25.48127	71.75501	213.91383	26.95737	37.34380	145.66681
525	2.09600	430.96201	1030.58276	298.20377	243.43347	972.28601	402.42273	329.02347	644.25836	427.30386	314.92538	600.39288	422.80481	269.47971	657.09308	435.66168	263.51581	611.85632	431.26480	319.93860	453.58646	410.41415	302.32175	444.02878	283.07455	533.02875	375.80722	405.81619	568.34546	351.51089	403.38428	502.71576	319.57971	406.44318	542.84320	303.84494	401.59970	681.41455	257.71542	381.88855	666.55994	255.48561	295.13675	732.43610	323.84534	340.70740	718.88232	124.45629	382.19873	677.44763	84.30845	316.05573	702.17480	104.37655	267.31415	424.43613	1031.57178	222.95810	236.01949	999.35468	136.38953	196.45845	733.21521	74.34399	178.01746	691.49500	84.72897	141.08257	753.30072	88.60836	129.04016	708.14917	90.81276	76.45155	492.74921	116.49937	109.65886	504.87070	237.98378	148.65910	291.85400	111.08453	148.69142	251.32370	124.98242	87.08796	294.35663	128.31865	97.74250	243.99887	141.31639	154.43903	88.20845	169.63498	129.68704	106.45594	257.63040	225.65680	50.40225	211.44772	-8.05631	47.43586	258.97604	-25.61755	71.30582	214.12971	26.91557	37.31099	145.60675
526	2.10000	424.10092	1031.83154	298.12292	236.64613	974.13910	402.18115	318.28104	645.65692	427.20630	303.15982	601.59259	422.58679	258.27316	658.68506	435.52591	251.79260	613.60571	431.30408	306.07098	455.27658	410.74698	288.75742	445.53918	283.41437	519.21844	377.66959	405.91565	554.46997	353.21661	403.44238	488.78381	321.43829	406.48001	528.93329	305.75290	401.57791	667.32874	259.33194	381.74765	652.11621	256.78387	295.45267	720.06018	324.09555	340.50540	701.46631	125.34170	382.89380	658.91034	86.08686	316.21457	683.76331	104.06281	268.44394	417.70941	1033.00586	222.84615	228.99768	1001.45056	136.26231	191.59901	733.77222	74.06840	173.46278	691.76489	84.55460	136.25345	753.38348	88.25599	124.52227	708.21490	90.37708	73.93525	492.18250	116.08373	106.81636	505.02670	237.78362	147.80006	291.96033	111.27148	144.14061	249.12225	126.47268	85.87848	293.99048	128.02023	92.47355	248.34341	140.12109	154.33340	88.27538	169.69933	129.50252	106.46509	257.71603	225.64182	50.54912	211.46771	-7.97449	47.33371	259.11093	-25.48350	71.15983	214.14207	26.86694	37.27431	145.52446
